<svg xmlns="http://www.w3.org/2000/svg" viewBox="0 0 100 100">
  <rect width="100" height="100" rx="22" fill="#1e3550"/>
  <path d="M22 22L50 50M50 22L22 50M50 22L78 50M78 22L50 50M22 50L50 78M22 78L50 50M50 50L78 78M78 50L50 78"
        fill="none" stroke="#ffffff" stroke-width="3.5" stroke-linecap="round"/>
  <g fill="#1e3550" stroke="#ffffff" stroke-width="3.5">
    <circle cx="22" cy="22" r="6.5"/>
    <circle cx="50" cy="22" r="6.5"/>
    <circle cx="78" cy="22" r="6.5"/>
    <circle cx="22" cy="50" r="6.5"/>
    <circle cx="50" cy="50" r="6.5"/>
    <circle cx="78" cy="50" r="6.5"/>
    <circle cx="22" cy="78" r="6.5"/>
    <circle cx="50" cy="78" r="6.5"/>
    <circle cx="78" cy="78" r="6.5"/>
  </g>
</svg>
